<svg width="450" height="300"
   xmlns:dc="http://purl.org/dc/elements/1.1/"
   xmlns:cc="http://creativecommons.org/ns#"
   xmlns:rdf="http://www.w3.org/1999/02/22-rdf-syntax-ns#"
   xmlns:svg="http://www.w3.org/2000/svg"
   xmlns="http://www.w3.org/2000/svg"
   xmlns:sodipodi="http://sodipodi.sourceforge.net/DTD/sodipodi-0.dtd"
   xmlns:inkscape="http://www.inkscape.org/namespaces/inkscape"
   id="svg3616"
   version="1.1"
   inkscape:version="0.91 r13725"
   sodipodi:docname="example.svg"><defs><marker id="arrow" markerWidth="10" markerHeight="10" refX="0" refY="2" orient="auto" markerUnits="strokeWidth"><path d="M0,0 L0,4 L6,2 z" fill="purple"></path></marker></defs><path fill="none" stroke="black" d="m240,100c50,0,0,125,50,100s0,-125,50,-150s175,50,50,100s-175,50,-300,0s0,-125,50,-100s0,125,50,150s0,-100,50,-100"></path><circle cx="240" cy="100" r="4" fill="blue"></circle><circle cx="240" cy="100" r="4" fill="green"></circle><line x1="240" y1="100" x2="260" y2="100" stroke="purple" stroke-width="2" marker-end="url(#arrow)"></line><circle cx="315.0015563964844" cy="121.3836898803711" r="4" fill="blue"></circle><circle cx="315.0013740921294" cy="121.43654748914082" r="4" fill="green"></circle><line x1="315.0013740921294" y1="121.43654748914082" x2="315.02452388497954" y2="101.43656088696804" stroke="purple" stroke-width="2" marker-end="url(#arrow)"></line><circle cx="441.4165954589844" cy="111.11810302734375" r="4" fill="blue"></circle><circle cx="441.43994874848113" cy="111.06286232281622" r="4" fill="green"></circle><line x1="441.43994874848113" y1="111.06286232281622" x2="433.6975435228673" y2="129.50344694810366" stroke="purple" stroke-width="2" marker-end="url(#arrow)"></line><circle cx="240.0000762939453" cy="187.49990844726562" r="4" fill="blue"></circle><circle cx="239.99989574030548" cy="187.49999999997635" r="4" fill="green"></circle><line x1="239.99989574030548" y1="187.49999999997635" x2="219.99989574030752" y2="187.49999092158117" stroke="purple" stroke-width="2" marker-end="url(#arrow)"></line><circle cx="38.58317947387695" cy="111.11775207519531" r="4" fill="blue"></circle><circle cx="38.5599678020771" cy="111.0626635641447" r="4" fill="green"></circle><line x1="38.5599678020771" y1="111.0626635641447" x2="30.817679646314694" y2="92.6220297867188" stroke="purple" stroke-width="2" marker-end="url(#arrow)"></line><circle cx="164.99853515625" cy="121.38365936279297" r="4" fill="blue"></circle><circle cx="164.99862615174567" cy="121.43675819462999" r="4" fill="green"></circle><line x1="164.99862615174567" y1="121.43675819462999" x2="165.02177320304298" y2="141.4367447999759" stroke="purple" stroke-width="2" marker-end="url(#arrow)"></line><circle cx="240" cy="100" r="4" fill="blue"></circle><circle cx="239.99999999999994" cy="100" r="4" fill="green"></circle><line x1="239.99999999999994" y1="100" x2="259.99999999999994" y2="99.99999999999996" stroke="purple" stroke-width="2" marker-end="url(#arrow)"></line></svg>
